<svg xmlns="http://www.w3.org/2000/svg" viewBox="0 0 74.29 112.23"><defs><style>.cls-1{fill:#fff;}</style></defs><g id="Calque_2" data-name="Calque 2"><g id="logo_app" data-name="logo app"><polygon class="cls-1" points="50.34 0.1 15.85 0.1 15.85 0.09 0.04 0.06 0.04 39.53 15.92 39.52 15.87 14.12 50.34 14.12 50.34 0.1"/><path class="cls-1" d="M51,88.64c0,14.53-10,23.59-22.33,23.59-6,0-10.41-1.68-13.44-5.29v4.54H0V52.19H16V69.92c3.11-3.18,7.39-4.7,12.68-4.7C41,65.22,51,74.21,51,88.64Zm-16.12,0c0-6.88-4.2-10.74-9.57-10.74S15.7,81.76,15.7,88.64s4.2,10.92,9.57,10.92S34.84,95.61,34.84,88.64Z"/><path class="cls-1" d="M58.34,0h16V111.48h-16Z"/></g></g></svg>