<svg width="133" height="37" viewBox="0 0 133 37" fill="none" xmlns="http://www.w3.org/2000/svg">
<path d="M13.4787 4.70679V17.4805H9.20699V16.1118C8.23238 17.1694 6.88451 17.6878 5.41222 17.6878C2.28101 17.6878 0 15.9045 0 11.8401V4.70679H4.47908V11.1144C4.47908 13.0843 5.24633 13.8723 6.5942 13.8723C7.92133 13.8723 8.99963 13.0014 8.99963 10.8655V4.70679H13.4787Z" fill="white"/>
<path d="M29.9435 10.1814V17.4807H25.4644V10.9072C25.4644 9.06166 24.6557 8.29441 23.37 8.29441C21.9392 8.29441 20.8194 9.18608 20.8194 11.3012V17.4807H16.3403V4.707H20.612V6.09634C21.6281 5.03878 23.0589 4.49963 24.6557 4.49963C27.6624 4.49963 29.9435 6.22076 29.9435 10.1814Z" fill="white"/>
<path d="M46.4913 0V17.4808H42.2196V16.2159C41.3694 17.232 40.1252 17.7089 38.4663 17.7089C34.9825 17.7089 32.1831 15.1584 32.1831 11.094C32.1831 7.0504 34.9825 4.52055 38.4663 4.52055C39.9593 4.52055 41.162 4.93528 41.9915 5.84768V0H46.4913ZM42.0951 11.0733C42.0951 9.14478 40.9339 8.06649 39.4409 8.06649C37.9064 8.06649 36.7659 9.14478 36.7659 11.0733C36.7659 13.0225 37.9271 14.1423 39.4409 14.1423C40.9339 14.1423 42.0951 13.0225 42.0951 11.0733Z" fill="white"/>
<path d="M62.3545 12.2346H53.0645C53.4378 13.5203 54.5576 14.2875 56.1957 14.2875C57.4399 14.2875 58.2694 13.935 59.1403 13.1885L61.5043 15.6354C60.2808 17.004 58.4975 17.709 56.0713 17.709C51.53 17.709 48.5854 14.9096 48.5854 11.0941C48.5854 7.25784 51.5715 4.52063 55.6151 4.52063C59.3892 4.52063 62.4374 6.92606 62.4374 11.1356C62.4167 11.4466 62.3752 11.8821 62.3545 12.2346ZM53.0023 9.87064H58.2279C57.9998 8.52277 57.0045 7.67257 55.6151 7.67257C54.2258 7.67257 53.2512 8.52277 53.0023 9.87064Z" fill="white"/>
<path d="M68.9486 15.1994H64.4902V4.70679H68.9278L68.9486 15.1994Z" fill="white"/>
<path d="M78.6326 4.72778H68.5962V8.66771H78.6326V4.72778Z" fill="white"/>
<path d="M78.7984 29.5906C78.7984 33.6757 75.999 36.2055 72.536 36.2055C70.8563 36.2055 69.6121 35.7286 68.7619 34.7125V35.9774H64.4902V20.7776H68.9693V24.3028C69.8402 23.4111 71.043 22.9757 72.536 22.9757C75.9782 23.0171 78.7984 25.5262 78.7984 29.5906ZM74.2571 29.5906C74.2571 27.6621 73.0751 26.5838 71.5614 26.5838C70.0476 26.5838 68.8656 27.6621 68.8656 29.5906C68.8656 31.5398 70.0476 32.6596 71.5614 32.6596C73.0751 32.6388 74.2571 31.5398 74.2571 29.5906Z" fill="white"/>
<path d="M80.8516 4.68665H85.3306V35.978H80.8516V4.68665Z" fill="white"/>
<path d="M87.4459 29.5908C87.4459 25.7545 90.4942 23.0173 94.6622 23.0173C98.8717 23.0173 101.878 25.7545 101.878 29.5908C101.878 33.4478 98.8925 36.2057 94.6622 36.2057C90.4734 36.2057 87.4459 33.4478 87.4459 29.5908ZM97.3372 29.5908C97.3372 27.6623 96.176 26.584 94.6415 26.584C93.1277 26.584 91.9457 27.6623 91.9457 29.5908C91.9457 31.54 93.1277 32.6598 94.6415 32.6598C96.176 32.6391 97.3372 31.54 97.3372 29.5908Z" fill="white"/>
<path d="M103.123 29.5908C103.123 25.7545 106.171 23.0173 110.443 23.0173C113.346 23.0173 115.564 24.3237 116.435 26.5218L112.972 28.2844C112.35 27.0817 111.459 26.5633 110.422 26.5633C108.867 26.5633 107.643 27.6416 107.643 29.5701C107.643 31.54 108.867 32.6391 110.422 32.6391C111.459 32.6391 112.35 32.1206 112.972 30.9179L116.435 32.6805C115.564 34.8993 113.346 36.185 110.443 36.185C106.171 36.2057 103.123 33.4685 103.123 29.5908Z" fill="white"/>
<path d="M123.9 31.5192L122.573 32.8671V35.9983H118.094V18.4967H122.573V27.6622L127.156 23.2039H132.464L127.156 28.6783L132.9 35.9775H127.488L123.9 31.5192Z" fill="white"/>
</svg>
